<svg width="210" height="64" viewBox="0 0 210 64" fill="none" xmlns="http://www.w3.org/2000/svg">
<path d="M90.8723 13.441V11.3672C91.4995 11.3672 92.0884 11.252 92.6388 11.0216C93.1892 10.7784 93.6693 10.4456 94.0789 10.0231C94.4885 9.6007 94.8085 9.10786 95.039 8.54462C95.2694 7.98138 95.3846 7.37334 95.3846 6.72049C95.3846 6.06764 95.2694 5.4596 95.039 4.89636C94.8085 4.33312 94.4885 3.84028 94.0789 3.41785C93.6693 2.99542 93.1892 2.66899 92.6388 2.43858C92.0884 2.19536 91.4995 2.07375 90.8723 2.07375V0C92.1908 0 93.3556 0.288021 94.3669 0.864063C95.391 1.4273 96.191 2.21456 96.7671 3.22584C97.3559 4.23711 97.6504 5.40199 97.6504 6.72049C97.6504 8.02618 97.3559 9.18467 96.7671 10.1959C96.191 11.2072 95.391 12.0009 94.3669 12.5769C93.3556 13.153 92.1908 13.441 90.8723 13.441ZM88.0881 13.441V11.3672H90.8723V13.441H88.0881ZM86.648 13.441V0H88.8753V13.441H86.648ZM88.0881 2.07375V0H90.8723V2.07375H88.0881Z" fill="white"/>
<path d="M103.609 13.6714C102.674 13.6714 101.842 13.4602 101.113 13.0377C100.383 12.6025 99.8133 12.0073 99.4037 11.252C98.9941 10.4968 98.7892 9.6263 98.7892 8.64063C98.7892 7.65496 99.0005 6.78449 99.4229 6.02924C99.8453 5.27398 100.421 4.68514 101.151 4.26271C101.881 3.82748 102.726 3.60986 103.686 3.60986C104.53 3.60986 105.299 3.83388 105.99 4.28191C106.681 4.71714 107.225 5.35079 107.622 6.18285C108.032 7.01491 108.236 8.00698 108.236 9.15907H106.067C106.079 8.32701 105.983 7.64216 105.779 7.10452C105.587 6.56688 105.305 6.17005 104.934 5.91403C104.562 5.64521 104.121 5.5108 103.609 5.5108C103.071 5.5108 102.61 5.63241 102.226 5.87563C101.855 6.11885 101.567 6.47727 101.362 6.95091C101.157 7.41174 101.055 7.99418 101.055 8.69823C101.055 9.32548 101.177 9.86312 101.42 10.3112C101.663 10.7592 101.989 11.1048 102.399 11.348C102.822 11.5784 103.289 11.6937 103.801 11.6937C104.364 11.6937 104.831 11.5656 105.203 11.3096C105.574 11.0408 105.862 10.7016 106.067 10.2919L108.044 11.1368C107.775 11.6488 107.436 12.0969 107.027 12.4809C106.617 12.8649 106.124 13.1594 105.548 13.3642C104.972 13.569 104.326 13.6714 103.609 13.6714ZM100.191 9.15907L100.21 7.45014H107.123V9.15907H100.191Z" fill="white"/>
<path d="M112.345 13.441L116.089 3.84028H118.316L114.361 13.441H112.345ZM112.191 13.441L108.217 3.84028H110.425L114.188 13.441H112.191Z" fill="white"/>
<path d="M123.411 13.6714C122.477 13.6714 121.644 13.4602 120.915 13.0377C120.185 12.6025 119.616 12.0073 119.206 11.252C118.796 10.4968 118.591 9.6263 118.591 8.64063C118.591 7.65496 118.803 6.78449 119.225 6.02924C119.648 5.27398 120.224 4.68514 120.953 4.26271C121.683 3.82748 122.528 3.60986 123.488 3.60986C124.333 3.60986 125.101 3.83388 125.792 4.28191C126.483 4.71714 127.027 5.35079 127.424 6.18285C127.834 7.01491 128.039 8.00698 128.039 9.15907H125.869C125.882 8.32701 125.786 7.64216 125.581 7.10452C125.389 6.56688 125.107 6.17005 124.736 5.91403C124.365 5.64521 123.923 5.5108 123.411 5.5108C122.873 5.5108 122.413 5.63241 122.028 5.87563C121.657 6.11885 121.369 6.47727 121.164 6.95091C120.96 7.41174 120.857 7.99418 120.857 8.69823C120.857 9.32548 120.979 9.86312 121.222 10.3112C121.465 10.7592 121.792 11.1048 122.201 11.348C122.624 11.5784 123.091 11.6937 123.603 11.6937C124.166 11.6937 124.633 11.5656 125.005 11.3096C125.376 11.0408 125.664 10.7016 125.869 10.2919L127.847 11.1368C127.578 11.6488 127.238 12.0969 126.829 12.4809C126.419 12.8649 125.926 13.1594 125.35 13.3642C124.774 13.569 124.128 13.6714 123.411 13.6714ZM119.993 9.15907L120.012 7.45014H126.925V9.15907H119.993Z" fill="white"/>
<path d="M129.412 13.441L129.431 0H131.582L131.562 13.441H129.412Z" fill="white"/>
<path d="M138.135 13.6714C137.162 13.6714 136.298 13.4602 135.543 13.0377C134.801 12.6025 134.218 12.0073 133.796 11.252C133.373 10.4968 133.162 9.6263 133.162 8.64063C133.162 7.65496 133.367 6.78449 133.776 6.02924C134.199 5.27398 134.781 4.68514 135.524 4.26271C136.279 3.82748 137.137 3.60986 138.097 3.60986C139.07 3.60986 139.927 3.82748 140.67 4.26271C141.412 4.68514 141.995 5.27398 142.417 6.02924C142.839 6.78449 143.051 7.65496 143.051 8.64063C143.051 9.6263 142.839 10.4968 142.417 11.252C141.995 12.0073 141.412 12.6025 140.67 13.0377C139.94 13.4602 139.095 13.6714 138.135 13.6714ZM138.135 11.5976C138.647 11.5976 139.095 11.476 139.479 11.2328C139.876 10.9768 140.183 10.6248 140.401 10.1767C140.631 9.72871 140.747 9.21667 140.747 8.64063C140.747 8.06459 140.631 7.55255 140.401 7.10452C140.183 6.65649 139.87 6.31086 139.46 6.06764C139.063 5.81162 138.609 5.68361 138.097 5.68361C137.585 5.68361 137.13 5.81162 136.733 6.06764C136.337 6.31086 136.023 6.65649 135.793 7.10452C135.575 7.55255 135.466 8.06459 135.466 8.64063C135.466 9.21667 135.575 9.72871 135.793 10.1767C136.023 10.6248 136.337 10.9768 136.733 11.2328C137.143 11.476 137.61 11.5976 138.135 11.5976Z" fill="white"/>
<path d="M144.716 17.2813V3.84028H146.732L146.867 5.60681V17.2813H144.716ZM149.9 13.6714C149.094 13.6714 148.396 13.4666 147.807 13.0569C147.231 12.6345 146.79 12.0457 146.483 11.2904C146.175 10.5352 146.022 9.6519 146.022 8.64063C146.022 7.61655 146.175 6.73329 146.483 5.99084C146.79 5.23558 147.231 4.65314 147.807 4.24351C148.396 3.82108 149.094 3.60986 149.9 3.60986C150.771 3.60986 151.526 3.82108 152.166 4.24351C152.819 4.65314 153.325 5.23558 153.683 5.99084C154.054 6.73329 154.24 7.61655 154.24 8.64063C154.24 9.6519 154.054 10.5352 153.683 11.2904C153.325 12.0457 152.819 12.6345 152.166 13.0569C151.526 13.4666 150.771 13.6714 149.9 13.6714ZM149.363 11.7129C149.875 11.7129 150.329 11.5848 150.726 11.3288C151.123 11.06 151.436 10.6952 151.667 10.2343C151.91 9.77351 152.032 9.24227 152.032 8.64063C152.032 8.03899 151.917 7.50775 151.686 7.04691C151.468 6.58608 151.161 6.22765 150.764 5.97163C150.368 5.71562 149.907 5.58761 149.382 5.58761C148.895 5.58761 148.46 5.71562 148.076 5.97163C147.692 6.22765 147.391 6.58608 147.174 7.04691C146.969 7.50775 146.867 8.03899 146.867 8.64063C146.867 9.24227 146.969 9.77351 147.174 10.2343C147.391 10.6952 147.686 11.06 148.057 11.3288C148.441 11.5848 148.876 11.7129 149.363 11.7129Z" fill="white"/>
<path d="M160.09 13.6714C159.156 13.6714 158.324 13.4602 157.594 13.0377C156.864 12.6025 156.295 12.0073 155.885 11.252C155.475 10.4968 155.271 9.6263 155.271 8.64063C155.271 7.65496 155.482 6.78449 155.904 6.02924C156.327 5.27398 156.903 4.68514 157.632 4.26271C158.362 3.82748 159.207 3.60986 160.167 3.60986C161.012 3.60986 161.78 3.83388 162.471 4.28191C163.162 4.71714 163.706 5.35079 164.103 6.18285C164.513 7.01491 164.718 8.00698 164.718 9.15907H162.548C162.561 8.32701 162.465 7.64216 162.26 7.10452C162.068 6.56688 161.786 6.17005 161.415 5.91403C161.044 5.64521 160.602 5.5108 160.09 5.5108C159.553 5.5108 159.092 5.63241 158.708 5.87563C158.336 6.11885 158.048 6.47727 157.844 6.95091C157.639 7.41174 157.536 7.99418 157.536 8.69823C157.536 9.32548 157.658 9.86312 157.901 10.3112C158.144 10.7592 158.471 11.1048 158.88 11.348C159.303 11.5784 159.77 11.6937 160.282 11.6937C160.845 11.6937 161.313 11.5656 161.684 11.3096C162.055 11.0408 162.343 10.7016 162.548 10.2919L164.526 11.1368C164.257 11.6488 163.918 12.0969 163.508 12.4809C163.098 12.8649 162.606 13.1594 162.029 13.3642C161.453 13.569 160.807 13.6714 160.09 13.6714ZM156.672 9.15907L156.691 7.45014H163.604V9.15907H156.672Z" fill="white"/>
<path d="M167.512 8.33341C167.512 7.29653 167.71 6.44527 168.107 5.77962C168.504 5.11397 169.016 4.62114 169.643 4.30111C170.283 3.96829 170.949 3.80188 171.64 3.80188V5.85643C171.051 5.85643 170.495 5.93963 169.97 6.10604C169.458 6.25966 169.042 6.51567 168.722 6.8741C168.402 7.23253 168.242 7.70616 168.242 8.295L167.512 8.33341ZM166.091 13.441V3.84028H168.242V13.441H166.091Z" fill="white"/>
<path d="M95.9606 31.7696L90.7187 18.3286H92.946L98.3224 31.7696H95.9606ZM85.2271 31.7696L90.5842 18.3286H92.8308L87.5888 31.7696H85.2271ZM87.7424 28.4669V26.4892H95.7878V28.4669H87.7424Z" fill="white"/>
<path d="M101.341 29.0814L100.036 27.6029L105.028 22.1689H107.62L101.341 29.0814ZM99.2867 31.7696V18.3286H101.437V31.7696H99.2867ZM105.393 31.7696L102.013 26.7964L103.415 25.2987L107.947 31.7696H105.393Z" fill="white"/>
<path d="M114.361 31.7696L114.265 26.8348C114.265 26.182 114.195 25.6379 114.054 25.2027C113.913 24.7675 113.695 24.4346 113.401 24.2042C113.107 23.9738 112.71 23.8586 112.211 23.8586C111.763 23.8586 111.366 23.9546 111.02 24.1466C110.674 24.3386 110.386 24.6331 110.156 25.0299L108.236 24.3578C108.453 23.9354 108.735 23.5386 109.081 23.1674C109.426 22.7961 109.862 22.5017 110.386 22.2841C110.911 22.0537 111.539 21.9385 112.268 21.9385C113.19 21.9385 113.958 22.1113 114.572 22.4569C115.2 22.8025 115.667 23.3146 115.974 23.993C116.281 24.6715 116.435 25.5099 116.435 26.5084V31.7696H114.361ZM111.635 32C110.495 32 109.606 31.744 108.966 31.2319C108.338 30.7199 108.025 29.9967 108.025 29.0622C108.025 28.0637 108.357 27.3021 109.023 26.7772C109.702 26.2524 110.642 25.99 111.846 25.99H114.86L114.88 27.6413H112.518C111.66 27.6413 111.058 27.7629 110.713 28.0061C110.38 28.2365 110.214 28.5694 110.214 29.0046C110.214 29.3758 110.361 29.6702 110.655 29.8878C110.962 30.0927 111.385 30.1951 111.923 30.1951C112.396 30.1951 112.806 30.0863 113.151 29.8686C113.51 29.6382 113.785 29.3438 113.977 28.9854C114.169 28.6142 114.265 28.2173 114.265 27.7949H115.072C115.072 29.1006 114.79 30.1311 114.227 30.8863C113.676 31.6288 112.812 32 111.635 32Z" fill="white"/>
<path d="M125.177 31.7696L125.081 29.9839V18.3286H127.212V31.7696H125.177ZM122.047 32C121.176 32 120.415 31.7952 119.762 31.3856C119.122 30.9631 118.616 30.3743 118.245 29.619C117.887 28.8638 117.707 27.9805 117.707 26.9692C117.707 25.9452 117.887 25.0619 118.245 24.3194C118.616 23.5642 119.122 22.9817 119.762 22.5721C120.415 22.1497 121.176 21.9385 122.047 21.9385C122.853 21.9385 123.545 22.1497 124.121 22.5721C124.71 22.9817 125.158 23.5642 125.465 24.3194C125.772 25.0619 125.926 25.9452 125.926 26.9692C125.926 27.9805 125.772 28.8638 125.465 29.619C125.158 30.3743 124.71 30.9631 124.121 31.3856C123.545 31.7952 122.853 32 122.047 32ZM122.585 30.0415C123.071 30.0415 123.5 29.9134 123.871 29.6574C124.255 29.3886 124.55 29.0238 124.754 28.563C124.972 28.1021 125.081 27.5709 125.081 26.9692C125.081 26.3676 124.972 25.8364 124.754 25.3755C124.55 24.9147 124.255 24.5563 123.871 24.3002C123.5 24.0442 123.065 23.9162 122.565 23.9162C122.053 23.9162 121.599 24.0442 121.202 24.3002C120.805 24.5563 120.492 24.9147 120.261 25.3755C120.044 25.8364 119.928 26.3676 119.916 26.9692C119.928 27.5709 120.044 28.1021 120.261 28.563C120.492 29.0238 120.805 29.3886 121.202 29.6574C121.612 29.9134 122.073 30.0415 122.585 30.0415Z" fill="white"/>
<path d="M133.603 32C132.668 32 131.836 31.7888 131.107 31.3664C130.377 30.9311 129.807 30.3359 129.398 29.5806C128.988 28.8254 128.783 27.9549 128.783 26.9692C128.783 25.9836 128.994 25.1131 129.417 24.3578C129.839 23.6026 130.415 23.0137 131.145 22.5913C131.875 22.1561 132.719 21.9385 133.68 21.9385C134.524 21.9385 135.292 22.1625 135.984 22.6105C136.675 23.0457 137.219 23.6794 137.616 24.5115C138.025 25.3435 138.23 26.3356 138.23 27.4877H136.061C136.073 26.6556 135.977 25.9708 135.772 25.4331C135.58 24.8955 135.299 24.4987 134.928 24.2426C134.556 23.9738 134.115 23.8394 133.603 23.8394C133.065 23.8394 132.604 23.961 132.22 24.2042C131.849 24.4474 131.561 24.8059 131.356 25.2795C131.151 25.7403 131.049 26.3228 131.049 27.0268C131.049 27.6541 131.171 28.1917 131.414 28.6398C131.657 29.0878 131.983 29.4334 132.393 29.6766C132.815 29.907 133.283 30.0223 133.795 30.0223C134.358 30.0223 134.825 29.8942 135.196 29.6382C135.568 29.3694 135.856 29.0302 136.061 28.6206L138.038 29.4654C137.769 29.9775 137.43 30.4255 137.021 30.8095C136.611 31.1935 136.118 31.488 135.542 31.6928C134.966 31.8976 134.32 32 133.603 32ZM130.185 27.4877L130.204 25.7787H137.117V27.4877H130.185Z" fill="white"/>
<path d="M139.604 31.7696V22.1689H141.62L141.754 23.9354V31.7696H139.604ZM146.113 31.7696V26.854L148.263 26.278V31.7696H146.113ZM152.641 31.7696V26.854L154.773 26.278V31.7696H152.641ZM146.113 26.854C146.113 26.086 146.023 25.4971 145.844 25.0875C145.678 24.6651 145.434 24.3706 145.114 24.2042C144.807 24.0378 144.442 23.9546 144.02 23.9546C143.303 23.9418 142.746 24.1786 142.349 24.6651C141.953 25.1515 141.754 25.8492 141.754 26.758H140.948C140.948 25.7467 141.095 24.8827 141.389 24.1658C141.684 23.4362 142.106 22.8857 142.657 22.5145C143.207 22.1305 143.86 21.9385 144.615 21.9385C145.78 21.9385 146.676 22.2969 147.303 23.0137C147.943 23.7178 148.263 24.8059 148.263 26.278L146.113 26.854ZM152.641 26.854C152.641 26.086 152.552 25.4971 152.373 25.0875C152.193 24.6651 151.944 24.3706 151.624 24.2042C151.316 24.0378 150.958 23.9546 150.548 23.9546C149.819 23.9418 149.256 24.1786 148.859 24.6651C148.462 25.1515 148.263 25.8492 148.263 26.758H147.457C147.457 25.7467 147.604 24.8827 147.899 24.1658C148.193 23.4362 148.615 22.8857 149.166 22.5145C149.716 22.1305 150.369 21.9385 151.124 21.9385C152.289 21.9385 153.192 22.2969 153.832 23.0137C154.472 23.7178 154.786 24.8059 154.773 26.278L152.641 26.854Z" fill="white"/>
<path d="M156.718 31.7696L156.737 22.1689H158.868L158.849 31.7696H156.718ZM157.793 20.3448C157.447 20.3448 157.147 20.2231 156.891 19.9799C156.647 19.7239 156.526 19.4231 156.526 19.0775C156.526 18.7318 156.647 18.4374 156.891 18.1942C157.147 17.951 157.447 17.8294 157.793 17.8294C158.139 17.8294 158.433 17.951 158.676 18.1942C158.932 18.4374 159.06 18.7318 159.06 19.0775C159.06 19.4231 158.932 19.7239 158.676 19.9799C158.433 20.2231 158.139 20.3448 157.793 20.3448Z" fill="white"/>
<path d="M165.397 32C164.462 32 163.63 31.7888 162.901 31.3664C162.171 30.9311 161.601 30.3359 161.192 29.5806C160.782 28.8254 160.577 27.9549 160.577 26.9692C160.577 25.9836 160.788 25.1131 161.211 24.3578C161.633 23.6026 162.209 23.0137 162.939 22.5913C163.669 22.1561 164.514 21.9385 165.474 21.9385C166.318 21.9385 167.087 22.1625 167.778 22.6105C168.469 23.0457 169.013 23.6794 169.41 24.5115C169.82 25.3435 170.024 26.3356 170.024 27.4877H167.855C167.867 26.6556 167.771 25.9708 167.567 25.4331C167.375 24.8955 167.093 24.4987 166.722 24.2426C166.35 23.9738 165.909 23.8394 165.397 23.8394C164.859 23.8394 164.398 23.961 164.014 24.2042C163.643 24.4474 163.355 24.8059 163.15 25.2795C162.945 25.7403 162.843 26.3228 162.843 27.0268C162.843 27.6541 162.965 28.1917 163.208 28.6398C163.451 29.0878 163.777 29.4334 164.187 29.6766C164.61 29.907 165.077 30.0223 165.589 30.0223C166.152 30.0223 166.619 29.8942 166.99 29.6382C167.362 29.3694 167.65 29.0302 167.855 28.6206L169.832 29.4654C169.563 29.9775 169.224 30.4255 168.815 30.8095C168.405 31.1935 167.912 31.488 167.336 31.6928C166.76 31.8976 166.114 32 165.397 32ZM161.979 27.4877L161.998 25.7787H168.911V27.4877H161.979Z" fill="white"/>
<path d="M58.2866 20.4497C58.2949 20.5048 58.329 20.5525 58.3783 20.5783C58.4275 20.6041 58.4862 20.6049 58.5361 20.5804L65.8134 17.0079C65.8596 16.9853 65.8934 16.9434 65.9059 16.8935C65.9977 16.525 66.0275 16.1596 66.0275 15.7655C66.0275 15.3298 65.9671 14.9325 65.9087 14.5811C65.8994 14.5253 65.8637 14.4775 65.8128 14.4527L58.5355 10.9153C58.486 10.8913 58.428 10.892 58.3791 10.9172C58.3302 10.9425 58.296 10.9894 58.287 11.0437L58.2859 11.0501C58.2583 11.2167 58.228 11.3987 58.2265 11.5833C58.1973 11.7696 58.1973 11.9857 58.1973 12.184V12.1931C58.1973 12.2672 58.2045 12.3484 58.2111 12.4242L58.2125 12.4403C58.2199 12.524 58.2264 12.6045 58.2264 12.6834C58.2264 12.693 58.2272 12.7026 58.2288 12.712C58.2415 12.7883 58.2482 12.8653 58.2553 12.9464L58.2562 12.9569C58.2633 13.0384 58.2713 13.1275 58.2883 13.2093C58.2997 13.2642 58.3369 13.3103 58.3881 13.3332L63.7722 15.7337L58.3857 18.2339C58.3356 18.2572 58.2995 18.3027 58.2883 18.3568C58.259 18.4976 58.228 18.6805 58.2265 18.8682C58.1973 19.0528 58.1973 19.236 58.1973 19.435V19.443C58.1973 19.735 58.2276 20.0596 58.2866 20.4497Z" fill="#FD5B4F"/>
<path fill-rule="evenodd" clip-rule="evenodd" d="M55.8717 7.17716C55.921 7.20296 55.955 7.25071 55.9633 7.30573C56.0223 7.69592 56.0526 8.02048 56.0526 8.31248V8.32056C56.0526 8.51947 56.0526 8.70271 56.0235 8.88727C56.0219 9.07496 55.9909 9.25783 55.9616 9.3987C55.9504 9.45274 55.9143 9.49828 55.8642 9.52152L50.4777 12.0218L55.8618 14.4223C55.9131 14.4451 55.9502 14.4913 55.9616 14.5462C55.9786 14.628 55.9866 14.7171 55.9937 14.7985L55.9947 14.809C56.0017 14.8901 56.0085 14.9671 56.0212 15.0434C56.0227 15.0529 56.0235 15.0625 56.0235 15.072C56.0235 15.151 56.0301 15.2315 56.0374 15.3151L56.0388 15.3312C56.0455 15.407 56.0526 15.4882 56.0526 15.5624V15.5715C56.0526 15.7699 56.0526 15.9859 56.0235 16.1721C56.0219 16.3568 55.9917 16.5388 55.964 16.7052L55.9629 16.7118C55.9539 16.7661 55.9198 16.813 55.8708 16.8382C55.8219 16.8635 55.7639 16.8642 55.7144 16.8401L48.4371 13.3027C48.3863 13.278 48.3505 13.2302 48.3412 13.1744C48.2828 12.823 48.2224 12.4256 48.2224 11.99C48.2224 11.5959 48.2522 11.2304 48.3441 10.862C48.3565 10.8121 48.3903 10.7702 48.4365 10.7475L55.7138 7.17511C55.7638 7.15059 55.8224 7.15135 55.8717 7.17716Z" fill="#FD5B4F"/>
<path fill-rule="evenodd" clip-rule="evenodd" d="M71.9623 0.785889H42.2874C40.1183 0.785889 38.3599 2.54432 38.3599 4.71345V23.042C38.3599 25.2112 40.1183 26.9696 42.2874 26.9696H71.9623C74.1314 26.9696 75.8899 25.2112 75.8899 23.042V4.71345C75.8899 2.54432 74.1314 0.785889 71.9623 0.785889ZM40.5418 4.71345C40.5418 3.74939 41.3234 2.96787 42.2874 2.96787H71.9623C72.9264 2.96787 73.7079 3.74939 73.7079 4.71345V23.042C73.7079 24.0061 72.9264 24.7876 71.9623 24.7876H42.2874C41.3234 24.7876 40.5418 24.0061 40.5418 23.042V4.71345Z" fill="#FD5B4F"/>
<path d="M42.5056 29.1516C41.9031 29.1516 41.4146 29.64 41.4146 30.2426C41.4146 30.8451 41.9031 31.3336 42.5056 31.3336H71.7441C72.3467 31.3336 72.8351 30.8451 72.8351 30.2426C72.8351 29.64 72.3467 29.1516 71.7441 29.1516H42.5056Z" fill="#FD5B4F"/>
<path d="M5.304 61.143C4.64533 61.143 4.03 61.026 3.458 60.792C2.89467 60.5493 2.39633 60.2157 1.963 59.791C1.52967 59.3577 1.19167 58.8593 0.949 58.296C0.715 57.724 0.598 57.1087 0.598 56.45C0.598 55.7913 0.715 55.1803 0.949 54.617C1.19167 54.045 1.52967 53.5423 1.963 53.109C2.39633 52.6757 2.89467 52.342 3.458 52.108C4.03 51.8653 4.64533 51.744 5.304 51.744C5.954 51.744 6.565 51.8653 7.137 52.108C7.709 52.342 8.20733 52.6757 8.632 53.109C9.05667 53.5423 9.39033 54.045 9.633 54.617C9.87567 55.1803 9.997 55.7913 9.997 56.45C9.997 57.1087 9.87567 57.724 9.633 58.296C9.39033 58.8593 9.05667 59.3577 8.632 59.791C8.20733 60.2157 7.709 60.5493 7.137 60.792C6.565 61.026 5.954 61.143 5.304 61.143ZM5.278 59.024C4.81 59.024 4.394 58.9157 4.03 58.699C3.666 58.4823 3.38 58.1833 3.172 57.802C2.964 57.412 2.86 56.9613 2.86 56.45C2.86 55.9387 2.964 55.4923 3.172 55.111C3.38 54.721 3.66167 54.4177 4.017 54.201C4.381 53.9843 4.797 53.876 5.265 53.876C5.68967 53.876 6.08833 53.9887 6.461 54.214C6.84233 54.4393 7.124 54.7297 7.306 55.085L7.475 55.436L6.682 55.748L6.513 55.475C6.40033 55.2583 6.227 55.085 5.993 54.955C5.759 54.8163 5.51633 54.747 5.265 54.747C4.823 54.747 4.459 54.9073 4.173 55.228C3.89567 55.54 3.757 55.9473 3.757 56.45C3.757 56.9527 3.9 57.3643 4.186 57.685C4.472 57.997 4.836 58.153 5.278 58.153C5.538 58.153 5.78067 58.0793 6.006 57.932C6.24 57.776 6.422 57.5767 6.552 57.334L6.682 57.074L7.514 57.386L7.358 57.711C7.15867 58.101 6.86833 58.4173 6.487 58.66C6.10567 58.9027 5.70267 59.024 5.278 59.024ZM5.304 60.298C6.032 60.298 6.67767 60.1333 7.241 59.804C7.813 59.4747 8.25933 59.0197 8.58 58.439C8.90933 57.8583 9.074 57.1953 9.074 56.45C9.074 55.696 8.90933 55.0287 8.58 54.448C8.25933 53.8673 7.813 53.4123 7.241 53.083C6.67767 52.7537 6.032 52.589 5.304 52.589C4.576 52.589 3.926 52.7537 3.354 53.083C2.782 53.4123 2.33133 53.8673 2.002 54.448C1.68133 55.0287 1.521 55.696 1.521 56.45C1.521 57.1953 1.68133 57.8583 2.002 58.439C2.33133 59.0197 2.782 59.4747 3.354 59.804C3.926 60.1333 4.576 60.298 5.304 60.298ZM15.6455 60.363L14.5535 60.09C14.5535 59.804 14.6098 59.5223 14.7225 59.245C14.8438 58.959 15.0128 58.6773 15.2295 58.4C15.4548 58.1227 15.7278 57.8627 16.0485 57.62L17.9335 56.203C18.1588 56.047 18.3538 55.8693 18.5185 55.67C18.6918 55.462 18.8262 55.2497 18.9215 55.033C19.0168 54.8077 19.0645 54.591 19.0645 54.383C19.0645 54.0797 18.9908 53.8067 18.8435 53.564C18.6962 53.3127 18.4882 53.1133 18.2195 52.966C17.9508 52.8187 17.6345 52.745 17.2705 52.745C16.9152 52.745 16.6032 52.8143 16.3345 52.953C16.0658 53.083 15.8448 53.2607 15.6715 53.486C15.4982 53.7027 15.3725 53.9367 15.2945 54.188L14.1765 53.967C14.2805 53.577 14.4668 53.213 14.7355 52.875C15.0128 52.537 15.3638 52.264 15.7885 52.056C16.2132 51.848 16.6855 51.744 17.2055 51.744C17.8122 51.744 18.3365 51.861 18.7785 52.095C19.2205 52.3203 19.5628 52.6323 19.8055 53.031C20.0568 53.421 20.1825 53.8673 20.1825 54.37C20.1825 54.8467 20.0525 55.2973 19.7925 55.722C19.5325 56.1467 19.1555 56.5583 18.6615 56.957L16.8805 58.309C16.6292 58.491 16.4082 58.6903 16.2175 58.907C16.0355 59.1237 15.8925 59.3533 15.7885 59.596C15.6932 59.83 15.6455 60.0857 15.6455 60.363ZM14.5535 61V60.09L15.3855 60.025H20.3125V61H14.5535ZM25.2342 61.156C24.5409 61.156 23.9256 60.9567 23.3882 60.558C22.8509 60.1507 22.4306 59.596 22.1272 58.894C21.8239 58.1833 21.6722 57.3687 21.6722 56.45C21.6722 55.5313 21.8239 54.721 22.1272 54.019C22.4306 53.3083 22.8466 52.7537 23.3752 52.355C23.9126 51.9477 24.5322 51.744 25.2342 51.744C25.9362 51.744 26.5516 51.9477 27.0802 52.355C27.6176 52.7537 28.0379 53.3083 28.3412 54.019C28.6532 54.721 28.8092 55.5313 28.8092 56.45C28.8092 57.3687 28.6576 58.1833 28.3542 58.894C28.0509 59.596 27.6306 60.1507 27.0932 60.558C26.5559 60.9567 25.9362 61.156 25.2342 61.156ZM25.2342 60.168C25.7196 60.168 26.1486 60.0077 26.5212 59.687C26.9026 59.3663 27.1972 58.9287 27.4052 58.374C27.6219 57.8193 27.7302 57.178 27.7302 56.45C27.7302 55.722 27.6219 55.0807 27.4052 54.526C27.1972 53.9627 26.9026 53.525 26.5212 53.213C26.1486 52.8923 25.7196 52.732 25.2342 52.732C24.7489 52.732 24.3199 52.8923 23.9472 53.213C23.5746 53.525 23.2799 53.9627 23.0632 54.526C22.8552 55.0807 22.7512 55.722 22.7512 56.45C22.7512 57.178 22.8552 57.8193 23.0632 58.374C23.2799 58.9287 23.5746 59.3663 23.9472 59.687C24.3286 60.0077 24.7576 60.168 25.2342 60.168ZM31.2353 60.363L30.1433 60.09C30.1433 59.804 30.1997 59.5223 30.3123 59.245C30.4337 58.959 30.6027 58.6773 30.8193 58.4C31.0447 58.1227 31.3177 57.8627 31.6383 57.62L33.5233 56.203C33.7487 56.047 33.9437 55.8693 34.1083 55.67C34.2817 55.462 34.416 55.2497 34.5113 55.033C34.6067 54.8077 34.6543 54.591 34.6543 54.383C34.6543 54.0797 34.5807 53.8067 34.4333 53.564C34.286 53.3127 34.078 53.1133 33.8093 52.966C33.5407 52.8187 33.2243 52.745 32.8603 52.745C32.505 52.745 32.193 52.8143 31.9243 52.953C31.6557 53.083 31.4347 53.2607 31.2613 53.486C31.088 53.7027 30.9623 53.9367 30.8843 54.188L29.7663 53.967C29.8703 53.577 30.0567 53.213 30.3253 52.875C30.6027 52.537 30.9537 52.264 31.3783 52.056C31.803 51.848 32.2753 51.744 32.7953 51.744C33.402 51.744 33.9263 51.861 34.3683 52.095C34.8103 52.3203 35.1527 52.6323 35.3953 53.031C35.6467 53.421 35.7723 53.8673 35.7723 54.37C35.7723 54.8467 35.6423 55.2973 35.3823 55.722C35.1223 56.1467 34.7453 56.5583 34.2513 56.957L32.4703 58.309C32.219 58.491 31.998 58.6903 31.8073 58.907C31.6253 59.1237 31.4823 59.3533 31.3783 59.596C31.283 59.83 31.2353 60.0857 31.2353 60.363ZM30.1433 61V60.09L30.9753 60.025H35.9023V61H30.1433ZM40.1611 61.156C39.7191 61.156 39.3161 61.091 38.9521 60.961C38.5967 60.8223 38.2891 60.6447 38.0291 60.428C37.7777 60.2113 37.5784 59.9817 37.4311 59.739L38.3411 59.232C38.4364 59.3533 38.5534 59.492 38.6921 59.648C38.8394 59.7953 39.0257 59.921 39.2511 60.025C39.4764 60.129 39.7537 60.181 40.0831 60.181C40.6724 60.181 41.1447 60.012 41.5001 59.674C41.8554 59.336 42.0331 58.9113 42.0331 58.4C42.0331 58.01 41.9247 57.6807 41.7081 57.412C41.5001 57.1433 41.1967 56.9397 40.7981 56.801C40.3994 56.6623 39.9227 56.593 39.3681 56.593H39.1211V55.735H39.3421C39.8881 55.735 40.3907 55.7957 40.8501 55.917C41.3094 56.0383 41.7081 56.216 42.0461 56.45C42.3927 56.684 42.6571 56.97 42.8391 57.308C43.0297 57.646 43.1251 58.036 43.1251 58.478C43.1251 59.0153 42.9907 59.4877 42.7221 59.895C42.4621 60.2937 42.1067 60.6057 41.6561 60.831C41.2054 61.0477 40.7071 61.156 40.1611 61.156ZM39.1211 56.502V55.657H39.3681C40.1134 55.657 40.7027 55.5313 41.1361 55.28C41.5781 55.02 41.7991 54.6517 41.7991 54.175C41.7991 53.915 41.7297 53.6767 41.5911 53.46C41.4524 53.2347 41.2487 53.057 40.9801 52.927C40.7201 52.7883 40.4167 52.719 40.0701 52.719C39.8361 52.719 39.6151 52.7537 39.4071 52.823C39.2077 52.8837 39.0214 52.979 38.8481 53.109C38.6834 53.2303 38.5317 53.3863 38.3931 53.577L37.5351 53.083C37.6997 52.8143 37.9077 52.5803 38.1591 52.381C38.4191 52.1817 38.7137 52.0257 39.0431 51.913C39.3724 51.8003 39.7321 51.744 40.1221 51.744C40.6507 51.744 41.1231 51.848 41.5391 52.056C41.9637 52.264 42.2974 52.55 42.5401 52.914C42.7827 53.2693 42.9041 53.6723 42.9041 54.123C42.9041 54.5043 42.8131 54.8423 42.6311 55.137C42.4491 55.4317 42.1934 55.683 41.8641 55.891C41.5434 56.099 41.1664 56.255 40.7331 56.359C40.3084 56.4543 39.8447 56.502 39.3421 56.502H39.1211ZM50.9253 61V59.986C51.3846 59.986 51.8093 59.8993 52.1993 59.726C52.5893 59.544 52.9316 59.2883 53.2263 58.959C53.5296 58.6297 53.7636 58.2527 53.9283 57.828C54.1016 57.3947 54.1883 56.9353 54.1883 56.45C54.1883 55.9647 54.1016 55.5097 53.9283 55.085C53.7636 54.6517 53.5296 54.2703 53.2263 53.941C52.9316 53.6117 52.5893 53.3603 52.1993 53.187C51.8093 53.005 51.3846 52.914 50.9253 52.914V51.9C51.7833 51.9 52.5373 52.095 53.1873 52.485C53.8459 52.8663 54.3616 53.3993 54.7343 54.084C55.1069 54.7687 55.2933 55.5573 55.2933 56.45C55.2933 57.334 55.1069 58.1183 54.7343 58.803C54.3616 59.4877 53.8459 60.025 53.1873 60.415C52.5373 60.805 51.7833 61 50.9253 61ZM49.0403 61V59.986H50.9253V61H49.0403ZM48.1563 61V51.9H49.2613V61H48.1563ZM49.0403 52.914V51.9H50.9253V52.914H49.0403ZM59.6545 61.156C59.0218 61.156 58.4628 61.013 57.9775 60.727C57.4921 60.4323 57.1108 60.0293 56.8335 59.518C56.5648 59.0067 56.4305 58.4173 56.4305 57.75C56.4305 57.0827 56.5648 56.4933 56.8335 55.982C57.1108 55.4707 57.4878 55.072 57.9645 54.786C58.4498 54.4913 59.0045 54.344 59.6285 54.344C60.2265 54.344 60.7465 54.4957 61.1885 54.799C61.6391 55.0937 61.9858 55.5097 62.2285 56.047C62.4711 56.5843 62.5925 57.217 62.5925 57.945H61.5525C61.5525 57.3903 61.4788 56.918 61.3315 56.528C61.1841 56.1293 60.9631 55.8217 60.6685 55.605C60.3825 55.3883 60.0315 55.28 59.6155 55.28C59.1908 55.28 58.8138 55.384 58.4845 55.592C58.1638 55.7913 57.9168 56.0773 57.7435 56.45C57.5701 56.8227 57.4835 57.2603 57.4835 57.763C57.4835 58.257 57.5788 58.686 57.7695 59.05C57.9601 59.4053 58.2245 59.687 58.5625 59.895C58.9005 60.0943 59.2818 60.194 59.7065 60.194C60.1571 60.194 60.5385 60.0857 60.8505 59.869C61.1625 59.6523 61.4095 59.3707 61.5915 59.024L62.5015 59.479C62.3368 59.817 62.1158 60.1117 61.8385 60.363C61.5698 60.6143 61.2491 60.8093 60.8765 60.948C60.5125 61.0867 60.1051 61.156 59.6545 61.156ZM57.1195 57.945L57.1325 57.048H61.9555V57.945H57.1195ZM65.7281 61L68.3801 54.5H69.4721L66.7551 61H65.7281ZM65.6631 61L62.9461 54.5H64.0251L66.6771 61H65.6631ZM73.1877 61.156C72.555 61.156 71.996 61.013 71.5107 60.727C71.0253 60.4323 70.644 60.0293 70.3667 59.518C70.098 59.0067 69.9637 58.4173 69.9637 57.75C69.9637 57.0827 70.098 56.4933 70.3667 55.982C70.644 55.4707 71.021 55.072 71.4977 54.786C71.983 54.4913 72.5377 54.344 73.1617 54.344C73.7597 54.344 74.2797 54.4957 74.7217 54.799C75.1723 55.0937 75.519 55.5097 75.7617 56.047C76.0043 56.5843 76.1257 57.217 76.1257 57.945H75.0857C75.0857 57.3903 75.012 56.918 74.8647 56.528C74.7173 56.1293 74.4963 55.8217 74.2017 55.605C73.9157 55.3883 73.5647 55.28 73.1487 55.28C72.724 55.28 72.347 55.384 72.0177 55.592C71.697 55.7913 71.45 56.0773 71.2767 56.45C71.1033 56.8227 71.0167 57.2603 71.0167 57.763C71.0167 58.257 71.112 58.686 71.3027 59.05C71.4933 59.4053 71.7577 59.687 72.0957 59.895C72.4337 60.0943 72.815 60.194 73.2397 60.194C73.6903 60.194 74.0717 60.0857 74.3837 59.869C74.6957 59.6523 74.9427 59.3707 75.1247 59.024L76.0347 59.479C75.87 59.817 75.649 60.1117 75.3717 60.363C75.103 60.6143 74.7823 60.8093 74.4097 60.948C74.0457 61.0867 73.6383 61.156 73.1877 61.156ZM70.6527 57.945L70.6657 57.048H75.4887V57.945H70.6527ZM77.4373 61V51.9H78.4773V61H77.4373ZM83.1668 61.156C82.5341 61.156 81.9708 61.013 81.4768 60.727C80.9915 60.4323 80.6101 60.0293 80.3328 59.518C80.0555 59.0067 79.9168 58.4173 79.9168 57.75C79.9168 57.0827 80.0511 56.4933 80.3198 55.982C80.5971 55.4707 80.9785 55.072 81.4638 54.786C81.9578 54.4913 82.5168 54.344 83.1408 54.344C83.7821 54.344 84.3455 54.4913 84.8308 54.786C85.3248 55.072 85.7061 55.4707 85.9748 55.982C86.2521 56.4933 86.3908 57.0827 86.3908 57.75C86.3908 58.4173 86.2521 59.0067 85.9748 59.518C85.7061 60.0293 85.3291 60.4323 84.8438 60.727C84.3585 61.013 83.7995 61.156 83.1668 61.156ZM83.1668 60.194C83.6001 60.194 83.9771 60.09 84.2978 59.882C84.6185 59.674 84.8698 59.388 85.0518 59.024C85.2425 58.66 85.3378 58.2353 85.3378 57.75C85.3378 57.2647 85.2425 56.84 85.0518 56.476C84.8698 56.112 84.6141 55.826 84.2848 55.618C83.9555 55.41 83.5741 55.306 83.1408 55.306C82.7161 55.306 82.3391 55.41 82.0098 55.618C81.6891 55.826 81.4335 56.112 81.2428 56.476C81.0608 56.84 80.9698 57.2647 80.9698 57.75C80.9698 58.2267 81.0608 58.6513 81.2428 59.024C81.4335 59.388 81.6935 59.674 82.0228 59.882C82.3608 60.09 82.7421 60.194 83.1668 60.194ZM87.8998 63.6V54.5H88.8748L88.9398 55.696V63.6H87.8998ZM91.1368 61.156C90.5908 61.156 90.1098 61.013 89.6938 60.727C89.2865 60.441 88.9701 60.0423 88.7448 59.531C88.5195 59.011 88.4068 58.4173 88.4068 57.75C88.4068 57.074 88.5195 56.4803 88.7448 55.969C88.9701 55.4577 89.2865 55.059 89.6938 54.773C90.1098 54.487 90.5908 54.344 91.1368 54.344C91.7175 54.344 92.2288 54.487 92.6708 54.773C93.1128 55.059 93.4551 55.4577 93.6978 55.969C93.9491 56.4803 94.0748 57.074 94.0748 57.75C94.0748 58.4173 93.9491 59.011 93.6978 59.531C93.4551 60.0423 93.1128 60.441 92.6708 60.727C92.2288 61.013 91.7175 61.156 91.1368 61.156ZM90.9028 60.207C91.3101 60.207 91.6698 60.103 91.9818 59.895C92.3025 59.687 92.5538 59.3967 92.7358 59.024C92.9265 58.6513 93.0218 58.2267 93.0218 57.75C93.0218 57.2733 92.9308 56.8487 92.7488 56.476C92.5755 56.1033 92.3285 55.813 92.0078 55.605C91.6871 55.397 91.3231 55.293 90.9158 55.293C90.5345 55.293 90.1921 55.397 89.8888 55.605C89.5941 55.813 89.3601 56.1033 89.1868 56.476C89.0221 56.8487 88.9398 57.2733 88.9398 57.75C88.9398 58.2267 89.0221 58.6513 89.1868 59.024C89.3601 59.3967 89.5941 59.687 89.8888 59.895C90.1835 60.103 90.5215 60.207 90.9028 60.207ZM98.3625 61.156C97.7298 61.156 97.1708 61.013 96.6855 60.727C96.2001 60.4323 95.8188 60.0293 95.5415 59.518C95.2728 59.0067 95.1385 58.4173 95.1385 57.75C95.1385 57.0827 95.2728 56.4933 95.5415 55.982C95.8188 55.4707 96.1958 55.072 96.6725 54.786C97.1578 54.4913 97.7125 54.344 98.3365 54.344C98.9345 54.344 99.4545 54.4957 99.8965 54.799C100.347 55.0937 100.694 55.5097 100.936 56.047C101.179 56.5843 101.3 57.217 101.3 57.945H100.26C100.26 57.3903 100.187 56.918 100.039 56.528C99.8921 56.1293 99.6711 55.8217 99.3765 55.605C99.0905 55.3883 98.7395 55.28 98.3235 55.28C97.8988 55.28 97.5218 55.384 97.1925 55.592C96.8718 55.7913 96.6248 56.0773 96.4515 56.45C96.2781 56.8227 96.1915 57.2603 96.1915 57.763C96.1915 58.257 96.2868 58.686 96.4775 59.05C96.6681 59.4053 96.9325 59.687 97.2705 59.895C97.6085 60.0943 97.9898 60.194 98.4145 60.194C98.8651 60.194 99.2465 60.0857 99.5585 59.869C99.8705 59.6523 100.117 59.3707 100.299 59.024L101.209 59.479C101.045 59.817 100.824 60.1117 100.546 60.363C100.278 60.6143 99.9571 60.8093 99.5845 60.948C99.2205 61.0867 98.8131 61.156 98.3625 61.156ZM95.8275 57.945L95.8405 57.048H100.663V57.945H95.8275ZM103.184 57.477C103.184 56.775 103.318 56.2073 103.587 55.774C103.856 55.332 104.198 55.007 104.614 54.799C105.039 54.5823 105.485 54.474 105.953 54.474V55.449C105.572 55.449 105.203 55.514 104.848 55.644C104.501 55.7653 104.215 55.969 103.99 56.255C103.765 56.541 103.652 56.931 103.652 57.425L103.184 57.477ZM102.612 61V54.5H103.652V61H102.612ZM116.821 61L113.168 51.9H114.273L117.978 61H116.821ZM109.424 61L113.129 51.9H114.247L110.594 61H109.424ZM111.179 58.413V57.425H116.236V58.413H111.179ZM120.028 58.907L119.365 58.192L122.823 54.5H124.136L120.028 58.907ZM119.014 61V51.9H120.054V61H119.014ZM123.109 61L120.639 57.269L121.315 56.541L124.396 61H123.109ZM129.188 61L129.123 59.934V57.568C129.123 57.0567 129.063 56.6363 128.941 56.307C128.829 55.969 128.651 55.7177 128.408 55.553C128.174 55.3797 127.862 55.293 127.472 55.293C127.1 55.293 126.775 55.3667 126.497 55.514C126.229 55.6613 126.008 55.891 125.834 56.203L124.898 55.826C125.072 55.5227 125.28 55.2583 125.522 55.033C125.765 54.8077 126.047 54.6387 126.367 54.526C126.697 54.4047 127.069 54.344 127.485 54.344C128.083 54.344 128.582 54.461 128.98 54.695C129.379 54.929 129.678 55.28 129.877 55.748C130.077 56.2073 130.172 56.7837 130.163 57.477L130.15 61H129.188ZM127.238 61.156C126.476 61.156 125.878 60.9827 125.444 60.636C125.02 60.2807 124.807 59.791 124.807 59.167C124.807 58.5083 125.024 58.0057 125.457 57.659C125.899 57.3037 126.515 57.126 127.303 57.126H129.162V57.997H127.537C126.931 57.997 126.497 58.0967 126.237 58.296C125.986 58.4953 125.86 58.7813 125.86 59.154C125.86 59.492 125.986 59.7607 126.237 59.96C126.489 60.1507 126.84 60.246 127.29 60.246C127.663 60.246 127.988 60.1593 128.265 59.986C128.543 59.8127 128.755 59.5787 128.902 59.284C129.05 58.9807 129.123 58.6383 129.123 58.257H129.76C129.76 59.141 129.544 59.8473 129.11 60.376C128.677 60.896 128.053 61.156 127.238 61.156ZM136.621 61L136.569 59.791V51.9H137.609V61H136.621ZM134.372 61.156C133.792 61.156 133.28 61.013 132.838 60.727C132.396 60.441 132.05 60.0423 131.798 59.531C131.556 59.011 131.434 58.4173 131.434 57.75C131.434 57.074 131.556 56.4803 131.798 55.969C132.05 55.4577 132.396 55.059 132.838 54.773C133.28 54.487 133.792 54.344 134.372 54.344C134.918 54.344 135.395 54.487 135.802 54.773C136.218 55.059 136.539 55.4577 136.764 55.969C136.99 56.4803 137.102 57.074 137.102 57.75C137.102 58.4173 136.99 59.011 136.764 59.531C136.539 60.0423 136.218 60.441 135.802 60.727C135.395 61.013 134.918 61.156 134.372 61.156ZM134.606 60.207C134.988 60.207 135.326 60.103 135.62 59.895C135.915 59.687 136.145 59.3967 136.309 59.024C136.483 58.6513 136.569 58.2267 136.569 57.75C136.569 57.2733 136.483 56.8487 136.309 56.476C136.145 56.1033 135.915 55.813 135.62 55.605C135.326 55.397 134.983 55.293 134.593 55.293C134.186 55.293 133.822 55.397 133.501 55.605C133.189 55.813 132.942 56.1033 132.76 56.476C132.578 56.8487 132.487 57.2733 132.487 57.75C132.487 58.2267 132.578 58.6513 132.76 59.024C132.942 59.3967 133.194 59.687 133.514 59.895C133.835 60.103 134.199 60.207 134.606 60.207ZM142.276 61.156C141.643 61.156 141.084 61.013 140.599 60.727C140.113 60.4323 139.732 60.0293 139.455 59.518C139.186 59.0067 139.052 58.4173 139.052 57.75C139.052 57.0827 139.186 56.4933 139.455 55.982C139.732 55.4707 140.109 55.072 140.586 54.786C141.071 54.4913 141.626 54.344 142.25 54.344C142.848 54.344 143.368 54.4957 143.81 54.799C144.26 55.0937 144.607 55.5097 144.85 56.047C145.092 56.5843 145.214 57.217 145.214 57.945H144.174C144.174 57.3903 144.1 56.918 143.953 56.528C143.805 56.1293 143.584 55.8217 143.29 55.605C143.004 55.3883 142.653 55.28 142.237 55.28C141.812 55.28 141.435 55.384 141.106 55.592C140.785 55.7913 140.538 56.0773 140.365 56.45C140.191 56.8227 140.105 57.2603 140.105 57.763C140.105 58.257 140.2 58.686 140.391 59.05C140.581 59.4053 140.846 59.687 141.184 59.895C141.522 60.0943 141.903 60.194 142.328 60.194C142.778 60.194 143.16 60.0857 143.472 59.869C143.784 59.6523 144.031 59.3707 144.213 59.024L145.123 59.479C144.958 59.817 144.737 60.1117 144.46 60.363C144.191 60.6143 143.87 60.8093 143.498 60.948C143.134 61.0867 142.726 61.156 142.276 61.156ZM139.741 57.945L139.754 57.048H144.577V57.945H139.741ZM146.525 61V54.5H147.5L147.565 55.696V61H146.525ZM151.088 61V57.672L152.128 57.282V61H151.088ZM155.664 61V57.672L156.704 57.282V61H155.664ZM151.088 57.672C151.088 57.0307 151.015 56.541 150.867 56.203C150.72 55.865 150.516 55.6353 150.256 55.514C149.996 55.384 149.702 55.319 149.372 55.319C148.8 55.319 148.354 55.5227 148.033 55.93C147.721 56.3287 147.565 56.8963 147.565 57.633H147.058C147.058 56.9483 147.158 56.359 147.357 55.865C147.557 55.371 147.843 54.994 148.215 54.734C148.597 54.474 149.056 54.344 149.593 54.344C150.382 54.344 151.002 54.5867 151.452 55.072C151.912 55.5573 152.137 56.294 152.128 57.282L151.088 57.672ZM155.664 57.672C155.664 57.0307 155.586 56.541 155.43 56.203C155.283 55.865 155.079 55.6353 154.819 55.514C154.559 55.384 154.265 55.319 153.935 55.319C153.363 55.319 152.917 55.5227 152.596 55.93C152.284 56.3287 152.128 56.8963 152.128 57.633H151.621C151.621 56.9483 151.721 56.359 151.92 55.865C152.12 55.371 152.41 54.994 152.791 54.734C153.173 54.474 153.632 54.344 154.169 54.344C154.949 54.344 155.565 54.5867 156.015 55.072C156.475 55.5573 156.704 56.294 156.704 57.282L155.664 57.672ZM158.41 61L158.436 54.5H159.476L159.45 61H158.41ZM158.943 52.992C158.769 52.992 158.618 52.927 158.488 52.797C158.358 52.667 158.293 52.5153 158.293 52.342C158.293 52.16 158.358 52.0083 158.488 51.887C158.618 51.757 158.769 51.692 158.943 51.692C159.125 51.692 159.276 51.757 159.398 51.887C159.528 52.0083 159.593 52.16 159.593 52.342C159.593 52.5153 159.528 52.667 159.398 52.797C159.276 52.927 159.125 52.992 158.943 52.992ZM164.213 61.156C163.58 61.156 163.021 61.013 162.536 60.727C162.051 60.4323 161.669 60.0293 161.392 59.518C161.123 59.0067 160.989 58.4173 160.989 57.75C160.989 57.0827 161.123 56.4933 161.392 55.982C161.669 55.4707 162.046 55.072 162.523 54.786C163.008 54.4913 163.563 54.344 164.187 54.344C164.785 54.344 165.305 54.4957 165.747 54.799C166.198 55.0937 166.544 55.5097 166.787 56.047C167.03 56.5843 167.151 57.217 167.151 57.945H166.111C166.111 57.3903 166.037 56.918 165.89 56.528C165.743 56.1293 165.522 55.8217 165.227 55.605C164.941 55.3883 164.59 55.28 164.174 55.28C163.749 55.28 163.372 55.384 163.043 55.592C162.722 55.7913 162.475 56.0773 162.302 56.45C162.129 56.8227 162.042 57.2603 162.042 57.763C162.042 58.257 162.137 58.686 162.328 59.05C162.519 59.4053 162.783 59.687 163.121 59.895C163.459 60.0943 163.84 60.194 164.265 60.194C164.716 60.194 165.097 60.0857 165.409 59.869C165.721 59.6523 165.968 59.3707 166.15 59.024L167.06 59.479C166.895 59.817 166.674 60.1117 166.397 60.363C166.128 60.6143 165.808 60.8093 165.435 60.948C165.071 61.0867 164.664 61.156 164.213 61.156ZM161.678 57.945L161.691 57.048H166.514V57.945H161.678ZM176.095 61.156C175.167 61.156 174.348 60.9567 173.638 60.558C172.927 60.1507 172.368 59.596 171.961 58.894C171.562 58.1833 171.363 57.373 171.363 56.463C171.363 55.5357 171.562 54.721 171.961 54.019C172.368 53.3083 172.927 52.7537 173.638 52.355C174.348 51.9477 175.167 51.744 176.095 51.744C176.58 51.744 177.052 51.8263 177.512 51.991C177.971 52.147 178.391 52.3637 178.773 52.641C179.154 52.9183 179.462 53.2347 179.696 53.59L178.825 54.188C178.651 53.9107 178.417 53.6637 178.123 53.447C177.828 53.2217 177.503 53.0483 177.148 52.927C176.801 52.8057 176.45 52.745 176.095 52.745C175.393 52.745 174.769 52.9053 174.223 53.226C173.677 53.538 173.248 53.9713 172.936 54.526C172.624 55.0807 172.468 55.7263 172.468 56.463C172.468 57.1737 172.619 57.8107 172.923 58.374C173.235 58.9287 173.664 59.3663 174.21 59.687C174.764 60.0077 175.393 60.168 176.095 60.168C176.684 60.168 177.204 60.0467 177.655 59.804C178.114 59.5527 178.474 59.2103 178.734 58.777C178.994 58.335 179.124 57.828 179.124 57.256L180.177 57.178C180.177 57.9753 180.003 58.673 179.657 59.271C179.31 59.8603 178.829 60.324 178.214 60.662C177.598 60.9913 176.892 61.156 176.095 61.156ZM176.888 57.308V56.359H180.177V57.217L179.657 57.308H176.888ZM181.552 61V54.5H182.527L182.592 55.696V61H181.552ZM186.115 61V57.672L187.155 57.282V61H186.115ZM190.691 61V57.672L191.731 57.282V61H190.691ZM186.115 57.672C186.115 57.0307 186.041 56.541 185.894 56.203C185.746 55.865 185.543 55.6353 185.283 55.514C185.023 55.384 184.728 55.319 184.399 55.319C183.827 55.319 183.38 55.5227 183.06 55.93C182.748 56.3287 182.592 56.8963 182.592 57.633H182.085C182.085 56.9483 182.184 56.359 182.384 55.865C182.583 55.371 182.869 54.994 183.242 54.734C183.623 54.474 184.082 54.344 184.62 54.344C185.408 54.344 186.028 54.5867 186.479 55.072C186.938 55.5573 187.163 56.294 187.155 57.282L186.115 57.672ZM190.691 57.672C190.691 57.0307 190.613 56.541 190.457 56.203C190.309 55.865 190.106 55.6353 189.846 55.514C189.586 55.384 189.291 55.319 188.962 55.319C188.39 55.319 187.943 55.5227 187.623 55.93C187.311 56.3287 187.155 56.8963 187.155 57.633H186.648C186.648 56.9483 186.747 56.359 186.947 55.865C187.146 55.371 187.436 54.994 187.818 54.734C188.199 54.474 188.658 54.344 189.196 54.344C189.976 54.344 190.591 54.5867 191.042 55.072C191.501 55.5573 191.731 56.294 191.731 57.282L190.691 57.672ZM193.371 61V51.9H194.411V59.791L194.359 61H193.371ZM196.608 61.156C196.062 61.156 195.581 61.013 195.165 60.727C194.758 60.441 194.441 60.0423 194.216 59.531C193.991 59.011 193.878 58.4173 193.878 57.75C193.878 57.074 193.991 56.4803 194.216 55.969C194.441 55.4577 194.758 55.059 195.165 54.773C195.581 54.487 196.062 54.344 196.608 54.344C197.189 54.344 197.7 54.487 198.142 54.773C198.584 55.059 198.926 55.4577 199.169 55.969C199.42 56.4803 199.546 57.074 199.546 57.75C199.546 58.4173 199.42 59.011 199.169 59.531C198.926 60.0423 198.584 60.441 198.142 60.727C197.7 61.013 197.189 61.156 196.608 61.156ZM196.374 60.207C196.781 60.207 197.141 60.103 197.453 59.895C197.774 59.687 198.025 59.3967 198.207 59.024C198.398 58.6513 198.493 58.2267 198.493 57.75C198.493 57.2733 198.402 56.8487 198.22 56.476C198.047 56.1033 197.8 55.813 197.479 55.605C197.158 55.397 196.794 55.293 196.387 55.293C196.006 55.293 195.663 55.397 195.36 55.605C195.065 55.813 194.831 56.1033 194.658 56.476C194.493 56.8487 194.411 57.2733 194.411 57.75C194.411 58.2267 194.493 58.6513 194.658 59.024C194.831 59.3967 195.065 59.687 195.36 59.895C195.655 60.103 195.993 60.207 196.374 60.207ZM207.54 61V51.9H208.632V61H207.54ZM201.287 61V51.9H202.392V61H201.287ZM202.262 56.814V55.813H207.774V56.814H202.262Z" fill="#627B84"/>
</svg>
